<svg xmlns="http://www.w3.org/2000/svg" width="38" height="38" viewBox="0 0 38 38" fill="none">
<path fill-rule="evenodd" clip-rule="evenodd" d="M20.4572 37.4858C29.4324 37.4858 36.7083 30.2099 36.7083 21.2346C36.7083 12.2593 29.4324 4.9834 20.4572 4.9834C14.2735 4.9834 8.89649 8.43708 6.14984 13.5207C5.91961 13.8535 5.66276 14.3167 5.38027 14.8262C4.59802 16.2372 3.61918 18.0026 2.46457 18.3326C1.30382 18.6643 0.580235 19.1536 1.16058 20.8948C1.69067 22.4852 6.15306 33.7415 14.8443 36.4904C16.5937 37.1342 18.4844 37.4858 20.4572 37.4858Z" fill="#F5C2D0"/>
<path fill-rule="evenodd" clip-rule="evenodd" d="M9.67871 9.09009C13.516 9.64599 20.3985 11.1291 25.8279 17.4117C31.1382 23.5565 31.3441 26.9957 31.6461 32.0383C31.6646 32.3473 31.6834 32.6624 31.7039 32.9845C34.795 30.026 36.7201 25.859 36.7201 21.2424C36.7201 12.2671 29.4442 4.99121 20.4689 4.99121C16.3278 4.99121 12.5485 6.54007 9.67871 9.09009Z" fill="#1E293B"/>
<path d="M36.6447 18.5728L0.422655 6.50354C-0.0489862 6.31642 -0.644329 5.03123 1.83758 4.53885C3.25239 4.25817 7.49728 5.00662 8.9122 5.94218C11.5534 2.76114 19.1563 -2.5905 28.4382 1.4513C37.7201 5.49309 37.7767 14.5497 36.6447 18.5728Z" fill="#2563EB"/>
<ellipse cx="11.027" cy="17.4119" rx="1.1608" ry="1.7412" transform="rotate(-0.774191 11.027 17.4119)" fill="#334155"/>
<circle cx="29.5999" cy="22.055" r="4.0628" fill="#F5C2D0"/>
</svg>